<?xml version="1.0" encoding="utf-8"?>
<!-- Generator: Adobe Illustrator 17.0.0, SVG Export Plug-In . SVG Version: 6.00 Build 0)  -->
<!DOCTYPE svg PUBLIC "-//W3C//DTD SVG 1.1//EN" "http://www.w3.org/Graphics/SVG/1.1/DTD/svg11.dtd">
<svg version="1.1" id="待机1" xmlns="http://www.w3.org/2000/svg" xmlns:xlink="http://www.w3.org/1999/xlink" x="0px" y="0px"
     width="144px" height="144px" viewBox="0 0 144 144" style="enable-background:new 0 0 144 144;" xml:space="preserve">
<path  d="M87.65,48.249c2.769,0,5.539,0,8.308,0c-2.972,2.666-5.944,5.332-8.916,7.998
    c-0.005,0.004-0.005,0.009-0.01,0.013c-0.008,0.009-0.014,0.019-0.021,0.029c-0.359,0.354-0.337,0.782-0.122,1.116
    c0.139,0.309,0.418,0.55,0.86,0.55c3.606,0,7.212,0,10.818,0c1.29,0,1.29-2,0-2c-2.736,0-5.472,0-8.208,0
    c2.972-2.666,5.944-5.332,8.916-7.998c0.005-0.004,0.005-0.009,0.01-0.013c0.008-0.009,0.013-0.019,0.021-0.028
    c0.359-0.354,0.337-0.782,0.122-1.116c-0.139-0.309-0.418-0.55-0.86-0.55c-3.64,0-7.279,0-10.918,0
    C86.361,46.249,86.361,48.249,87.65,48.249z"/>
<path style="opacity:0.35;fill:#FFFFFF;stroke:#000000;" d="M43.233,58.875h22.845c0.497-7.823,5.189-14.493,11.848-17.819
    c-1.909-0.358-3.875-0.553-5.888-0.553C59.281,40.503,48.287,48.026,43.233,58.875z"/>
<path style="fill:#FFFFFF;" d="M77.038,61.623c1.177,0,2.355,0,3.532,0c-1.395,1.251-2.789,2.502-4.184,3.753
    c-0.005,0.004-0.005,0.009-0.01,0.013c-0.008,0.009-0.014,0.019-0.021,0.029c-0.359,0.354-0.337,0.782-0.122,1.116
    c0.139,0.309,0.418,0.55,0.86,0.55c2.029,0,4.057,0,6.086,0c1.29,0,1.29-2,0-2c-1.159,0-2.317,0-3.476,0
    c1.395-1.251,2.789-2.502,4.184-3.753c0.005-0.004,0.005-0.009,0.01-0.013c0.008-0.009,0.013-0.019,0.021-0.028
    c0.359-0.354,0.337-0.782,0.122-1.116c-0.139-0.309-0.418-0.55-0.86-0.55c-2.048,0-4.095,0-6.143,0
    C75.749,59.623,75.749,61.623,77.038,61.623z"/>
<g>
<path fill="#FFFFFF" stroke="#000000" stroke-miterlimit="10" d="M87.494,81.715c-11.855,0-21.465-9.61-21.465-21.465c0-0.463,0.021-0.92,0.049-1.375H43.233
    c-1.897,4.071-2.962,8.608-2.962,13.396c0,17.545,14.223,31.768,31.768,31.768c16.878,0,30.676-13.165,31.7-29.785
    C99.803,78.816,93.992,81.715,87.494,81.715z"/>
</g>
<g>
</g>
<g>
</g>
<g>
</g>
<g>
<g>
<g>
</g>
</g>
<g>
</g>
</g>
<g>
</g>
</svg>
